<svg xmlns="http://www.w3.org/2000/svg" viewBox="0 0 512 512" role="img" aria-label="AgroConecta">
  <rect width="512" height="512" rx="112" fill="#f8f9fa" />
  <circle cx="256" cy="256" r="202" fill="#198754" />
  <path
    fill="#f8f9fa"
    d="M256 396c-72-34-115-93-115-158 0-58 37-101 90-104 14-1 24 11 20 24-10 39-5 74 15 105 16-37 48-70 98-100 12-7 27 2 26 16-6 88-51 164-134 217Z"
  />
  <path
    fill="#ffc107"
    d="M139 334c70-9 134-38 192-86 10-8 23 4 15 14-52 66-119 99-201 100-17 0-23-25-6-28Z"
  />
</svg>
