<svg xmlns="http://www.w3.org/2000/svg" viewBox="0 0 64 64" role="img" aria-label="AgroConecta">
  <rect width="64" height="64" rx="16" fill="#198754" />
  <path
    fill="#f8f9fa"
    d="M32 49c-8.8-4.2-14-11.3-14-19.3 0-7.1 4.6-12.3 11-12.7 1.7-.1 2.9 1.3 2.5 2.9-1.2 4.7-.6 9 1.8 12.8 1.9-4.5 5.8-8.6 11.9-12.2 1.5-.9 3.3.2 3.2 1.9-.7 10.7-6.2 20-16.4 26.6Z"
  />
  <path
    fill="#ffc107"
    d="M18 41.5c8.5-1.1 16.3-4.6 23.4-10.5 1.2-1 2.8.5 1.8 1.7-6.4 8-14.5 12-24.5 12.1-2.1 0-2.8-3-.7-3.3Z"
  />
</svg>
